<?xml version="1.0" standalone="no"?>
<!DOCTYPE svg PUBLIC "-//W3C//DTD SVG 20010904//EN"
 "http://www.w3.org/TR/2001/REC-SVG-20010904/DTD/svg10.dtd">
<svg version="1.0" xmlns="http://www.w3.org/2000/svg"
 width="752.000000pt" height="752.000000pt" viewBox="0 0 752.000000 752.000000"
 preserveAspectRatio="xMidYMid meet">
<metadata>
Created by potrace 1.11, written by Peter Selinger 2001-2013
</metadata>
<g transform="translate(0.000000,752.000000) scale(0.100000,-0.100000)"
fill="#000000" stroke="none">
<path d="M1055 6493 c-129 -24 -259 -66 -365 -116 -35 -17 -144 -79 -150 -86
-3 -3 -25 -20 -50 -36 -74 -49 -222 -204 -282 -295 -139 -212 -198 -414 -192
-659 2 -95 6 -130 29 -236 3 -16 17 -61 31 -100 14 -38 27 -75 28 -81 1 -7 7
-18 12 -25 6 -8 21 -36 34 -64 13 -27 26 -52 29 -55 3 -3 24 -32 46 -64 55
-82 238 -266 264 -266 6 0 14 -6 18 -12 8 -14 68 -58 78 -58 3 0 23 -11 44
-25 l39 -24 -14 -48 c-19 -61 -51 -216 -60 -285 -3 -29 -8 -64 -10 -78 -13
-102 -25 -258 -25 -345 0 -70 10 -289 15 -310 2 -11 7 -45 11 -75 4 -30 9 -64
11 -75 3 -11 7 -35 10 -54 3 -19 10 -45 15 -58 5 -13 8 -27 8 -31 -1 -4 0 -10
1 -14 1 -5 3 -11 4 -15 110 -423 373 -824 719 -1099 45 -36 90 -72 100 -80 34
-28 199 -134 208 -134 5 0 9 -3 9 -7 0 -5 10 -13 23 -19 12 -6 84 -43 161 -83
76 -39 145 -71 152 -71 8 0 14 -4 14 -10 0 -5 5 -10 10 -10 6 0 61 -20 123
-44 174 -69 403 -139 587 -181 8 -2 35 -8 60 -14 25 -5 59 -12 75 -15 17 -3
41 -8 55 -11 14 -3 36 -8 50 -10 14 -2 34 -6 45 -8 11 -3 45 -8 75 -12 30 -4
64 -9 75 -11 11 -2 40 -6 65 -9 25 -3 61 -7 80 -10 34 -4 120 -13 210 -21 259
-23 771 -23 965 0 22 2 67 7 100 11 96 10 113 13 260 39 120 22 174 33 288 61
72 17 262 78 274 88 7 5 13 7 13 4 0 -6 24 3 175 67 145 61 473 249 483 277 2
5 8 9 13 9 5 0 18 8 30 17 11 10 30 26 42 36 249 208 405 399 542 662 46 89
95 203 110 255 2 8 16 48 30 89 13 41 27 86 29 100 2 14 5 26 6 26 2 0 1 -2
23 110 27 135 40 239 41 322 1 35 3 63 6 63 12 0 0 371 -15 499 -4 31 -9 71
-11 90 -2 19 -6 50 -9 70 -4 20 -8 45 -9 56 -3 17 -9 50 -22 115 -1 8 -10 42
-19 75 -29 101 -28 104 40 143 139 78 320 242 387 352 12 19 24 37 27 40 33
29 160 324 147 338 -3 2 -1 12 3 21 5 9 12 40 16 70 4 30 9 63 11 75 6 30 5
183 -1 231 -25 178 -74 317 -168 475 -38 63 -129 173 -194 233 -51 48 -149
127 -157 127 -3 0 -24 13 -48 29 -83 56 -272 133 -383 157 -165 34 -417 39
-545 11 -8 -2 -42 -9 -75 -16 -33 -7 -66 -18 -72 -23 -7 -6 -13 -7 -13 -4 0 4
-9 2 -21 -4 -11 -6 -29 -13 -39 -15 -50 -10 -256 -122 -298 -162 -7 -7 -17
-13 -22 -13 -10 0 -195 -181 -225 -220 -11 -14 -32 -44 -48 -68 l-27 -42 -38
16 c-20 9 -48 21 -62 27 -14 5 -27 11 -30 12 -3 1 -14 5 -25 10 -141 58 -383
140 -470 160 -11 2 -54 13 -95 24 -206 55 -424 82 -655 81 -153 -1 -238 -6
-373 -25 -26 -3 -59 -8 -72 -9 -14 -2 -39 -6 -55 -10 -17 -4 -46 -8 -65 -10
-19 -2 -53 -8 -75 -14 -22 -6 -53 -13 -70 -15 -35 -6 -149 -34 -185 -46 -14
-5 -63 -19 -110 -32 -47 -12 -89 -25 -95 -29 -5 -4 -26 -11 -45 -15 -19 -4
-39 -11 -45 -15 -5 -4 -22 -10 -36 -13 -14 -4 -42 -13 -62 -22 -20 -8 -39 -15
-42 -15 -3 0 -29 -11 -59 -24 l-55 -24 -54 71 c-143 189 -345 343 -547 416
-19 7 -44 17 -55 21 -16 6 -101 31 -125 36 -3 0 -21 4 -40 8 -73 15 -99 17
-250 20 -97 1 -181 -3 -225 -11z"/>
</g>
</svg>
